<?xml version="1.0" encoding="utf-8"?>
<!-- Generator: Adobe Illustrator 16.0.0, SVG Export Plug-In . SVG Version: 6.00 Build 0)  -->
<!DOCTYPE svg PUBLIC "-//W3C//DTD SVG 1.0//EN" "http://www.w3.org/TR/2001/REC-SVG-20010904/DTD/svg10.dtd">
<svg version="1.0" id="Layer_1" xmlns="http://www.w3.org/2000/svg" xmlns:xlink="http://www.w3.org/1999/xlink" x="0px" y="0px"
	 width="552.463px" height="124.595px" viewBox="-0.004 2.275 552.463 124.595"
	 enable-background="new -0.004 2.275 552.463 124.595" xml:space="preserve">
<g id="Capa_x0020_1">
	<g id="_95066152">
		<g>
			<path fill="#1D8E88" d="M59.115,72.888c-1.326-0.52-2.823,0.133-3.343,1.459c-0.521,1.326,0.133,2.823,1.459,3.343
				s2.823-0.133,3.343-1.459C61.095,74.905,60.441,73.408,59.115,72.888z M58.156,77.781c-3.225,0-3.225-5,0-5
				S61.381,77.781,58.156,77.781z"/>
			<path fill="#1D8E88" d="M46.448,98.231c0.338,1.081,0.3,2.287-0.109,3.34c0.032-0.07,0.076-0.131,0.104-0.204
				C46.855,100.317,46.818,99.209,46.448,98.231z"/>
			<path fill="#1D8E88" d="M53.967,22.957c-2.826-1.108-6.016,0.284-7.124,3.11s0.284,6.016,3.11,7.124
				c2.826,1.108,6.016-0.284,7.124-3.11C58.186,27.255,56.793,24.065,53.967,22.957z M52,31.594c-0.311,0-0.596-0.04-0.864-0.102
				c-3.628-0.667-3.555-6.398,0.206-6.88c0.042-0.007,0.087-0.007,0.129-0.013c0.125-0.012,0.24-0.037,0.373-0.037
				c0.019,0,0.035,0.005,0.054,0.005c0.024,0,0.046-0.005,0.071-0.005c1.131,0,1.979,0.44,2.543,1.099
				C56.237,27.621,55.402,31.594,52,31.594z"/>
			<path fill="#1D8E88" d="M79.694,48.664c-2.839-1.113-6.043,0.286-7.156,3.124c-1.113,2.839,0.286,6.043,3.125,7.156
				s6.042-0.286,7.155-3.125S82.533,49.777,79.694,48.664z M77.688,57.281c-4.514,0-4.514-7,0-7S82.202,57.281,77.688,57.281z"/>
			<path fill="#1D8E88" d="M59.665,71.486c-2.101-0.824-4.471,0.211-5.295,2.312c-0.823,2.101,0.211,4.471,2.312,5.295
				s4.472-0.211,5.295-2.312C62.801,74.68,61.766,72.31,59.665,71.486z M58.156,77.781c-3.225,0-3.225-5,0-5
				S61.381,77.781,58.156,77.781z"/>
			<g id="_95136032">
				
					<rect x="49.419" y="80.942" transform="matrix(0.8447 0.5352 -0.5352 0.8447 54.0992 -13.5591)" fill="#1D8E88" width="2" height="11.04"/>
			</g>
			<g id="_95135960">
				
					<rect x="24.63" y="64.487" transform="matrix(0.8874 0.461 -0.461 0.8874 34.6819 -11.0187)" fill="#1D8E88" width="30.535" height="2"/>
			</g>
			<g id="_95135888">
				
					<rect x="66.114" y="57.156" transform="matrix(0.7353 0.6777 -0.6777 0.7353 61.8801 -28.2544)" fill="#1D8E88" width="2" height="15.881"/>
			</g>
			<g id="_95135816">
				
					<rect x="34.871" y="26.682" transform="matrix(0.6088 0.7933 -0.7933 0.6088 45.6593 -12.8626)" fill="#1D8E88" width="2" height="26.366"/>
			</g>
			<g id="_95135744">
				
					<rect x="54.107" y="40.146" transform="matrix(0.6795 0.7337 -0.7337 0.6795 51.0715 -34.6117)" fill="#1D8E88" width="22.085" height="2.001"/>
			</g>
			<path fill="#1D8E88" d="M44.902,93.33c-3.558-1.396-7.573,0.358-8.969,3.916s0.357,7.574,3.916,8.969
				c3.558,1.396,7.573-0.358,8.969-3.916S48.461,94.725,44.902,93.33z M42.333,104.25c-5.804,0-5.804-9,0-9
				S48.137,104.25,42.333,104.25z"/>
			<path fill="#1D8E88" d="M74.941,51.672c-0.202,0.259-0.381,0.538-0.507,0.859c-0.507,1.293-0.18,2.698,0.709,3.649
				C74.099,54.958,74.04,52.996,74.941,51.672z"/>
			<path fill="#1D8E88" d="M80.614,51.942c0.695,1.271,0.59,2.986-0.305,4.127c0.25-0.291,0.467-0.617,0.615-0.994
				C81.346,54.001,81.188,52.849,80.614,51.942z"/>
			<path fill="#1D8E88" d="M21.528,46.917c-3.559-1.396-7.574,0.358-8.97,3.916s0.358,7.574,3.916,8.969
				c3.559,1.395,7.574-0.358,8.97-3.916C26.84,52.328,25.086,48.312,21.528,46.917z M19.021,57.856c-5.804,0-5.804-9,0-9
				S24.824,57.856,19.021,57.856z"/>
			<path fill="#1D8E88" d="M59.115,72.888c-1.326-0.52-2.823,0.133-3.343,1.459c-0.521,1.326,0.133,2.823,1.459,3.343
				s2.823-0.133,3.343-1.459C61.095,74.905,60.441,73.408,59.115,72.888z M58.156,77.781c-3.225,0-3.225-5,0-5
				S61.381,77.781,58.156,77.781z"/>
			<path fill="#1D8E88" d="M46.448,98.231c0.338,1.081,0.3,2.287-0.109,3.34c0.032-0.07,0.076-0.131,0.104-0.204
				C46.855,100.317,46.818,99.209,46.448,98.231z"/>
		</g>
		<g>
			<path fill="#05B8A5" d="M444.93,44.415c-9.968,0-18.048,8.103-18.048,18.097s8.08,18.097,18.048,18.097
				s18.048-8.102,18.048-18.097S454.897,44.415,444.93,44.415z M447.654,73.428c-0.811,0.254-1.69,0.405-2.654,0.405
				c-0.91,0-1.743-0.136-2.517-0.363C430.833,72.847,431,51.5,443,51.5c0.039,0,0.074,0.005,0.112,0.006
				c0.546-0.104,1.115-0.172,1.722-0.172c0.598,0,1.158,0.067,1.698,0.168C458.28,51.539,458.653,72.083,447.654,73.428z"/>
			<path fill="#05B8A5" d="M455.893,62.632c0-2-0.48-3.881-1.324-5.522c1.715,4.028,1.346,9.329-1.116,12.799
				C454.977,67.919,455.893,65.39,455.893,62.632z"/>
			<path fill="#05B8A5" d="M445,73.833c-0.898,0-1.721-0.132-2.487-0.354c-0.864-0.045-1.664-0.202-2.399-0.457
				c1.455,0.754,3.085,1.189,4.815,1.189c2.324,0,4.476-0.769,6.249-2.072c-0.995,0.661-2.159,1.106-3.487,1.277
				C446.87,73.678,445.979,73.833,445,73.833z"/>
			<path fill="#05B8A5" d="M443.112,51.506c0.546-0.104,1.115-0.172,1.722-0.172c0.598,0,1.158,0.067,1.698,0.168
				c0.753,0.002,1.46,0.088,2.12,0.249c-1.164-0.444-2.413-0.699-3.722-0.699c-1.191,0-2.335,0.207-3.409,0.578
				c0.474-0.076,0.961-0.129,1.479-0.129C443.039,51.5,443.074,51.505,443.112,51.506z"/>
			<path fill="#05B8A5" d="M328.891,44.53c-4.435-0.414-18.339,2.981-18.34,19.049c0.711,12.284,11.125,17.167,18.827,17.096
				c9.137,0.305,15.476-5.611,17.274-8.895l-5.797-2.543c-4.067,6.717-20.342,9.676-22.896-4.928h28.787
				C347.029,55.036,341.029,44.842,328.891,44.53z M337.004,59.195c-0.032,0.002-0.068,0.008-0.099,0.008
				c-0.07,0.001-0.139-0.011-0.208-0.012c-0.72-0.007-1.44-0.016-2.161-0.029h-2.879c-0.864,0-1.777,0.092-2.649,0.002
				c-0.494,0.089-1.014,0.154-1.596,0.154c-0.593,0-1.123-0.067-1.625-0.161c-0.091,0.009-0.184,0.019-0.271,0.021
				c-0.128,0.002-0.27-0.006-0.418-0.024c-0.18,0.031-0.361,0.053-0.535,0.056c-0.158,0.003-0.349-0.019-0.544-0.05
				c-0.312,0.048-0.639,0.035-0.962-0.007c-0.277,0.04-0.577,0.039-0.88,0.008h-1.673c-0.389,0-0.928,0.092-1.326-0.032
				c-0.04,0.052-0.075,0.094-0.091,0.094c-0.169,0.003-0.332,0.002-0.5-0.016c0,0,0.014-0.025,0.032-0.058
				c-0.018,0.02-0.039,0.042-0.048,0.042c-0.076,0.003-0.151-0.003-0.225-0.015c-0.047,0.028-0.035,0.009,0.008-0.033
				c0.015-0.026,0.039-0.069,0.067-0.118c-0.019-0.01-0.04-0.019-0.053-0.037c-0.028-0.028,0.058-0.201,0.19-0.43
				c0.004-0.008,0.01-0.018,0.016-0.026c-0.021-0.016-0.055-0.012-0.065-0.043c-0.01-0.015,0.025-0.087,0.074-0.175
				c0-0.021-0.016-0.038-0.012-0.059c0-0.04,0.025-0.1,0.061-0.168c-0.009-0.018-0.021-0.033-0.03-0.051
				c-0.016-0.03,0.078-0.194,0.173-0.349c0-0.009-0.002-0.018-0.001-0.026c0-0.04,0.026-0.102,0.063-0.172
				c-0.007-0.041-0.016-0.081-0.016-0.125c0-0.06,0.058-0.168,0.125-0.278v-0.065c0-0.067,0.069-0.192,0.146-0.315
				c0.046-0.111,0.099-0.219,0.171-0.315c0.044-0.251,0.14-0.479,0.3-0.667c0.014-0.074,0.011-0.145,0.04-0.222
				c0.053-0.14,0.135-0.253,0.215-0.366c0.072-0.301,0.255-0.549,0.488-0.755c0.067-0.141,0.164-0.264,0.271-0.38
				c0.051-0.151,0.124-0.304,0.25-0.457c0.096-0.118,0.211-0.219,0.334-0.312c0.104-0.165,0.238-0.318,0.409-0.448
				c0.01-0.018,0.017-0.035,0.027-0.053c0.067-0.111,0.138-0.198,0.229-0.292c0.179-0.184,0.386-0.327,0.602-0.452
				c0.176-0.171,0.39-0.315,0.609-0.435c0.458-0.341,1.005-0.628,1.655-0.833c0.872-0.422,1.965-0.684,3.292-0.697
				c0.283-0.089,0.609-0.141,0.984-0.141c0.249,0,0.47,0.03,0.679,0.072c0.349,0.013,0.655,0.071,0.922,0.163
				c0.01,0.001,0.017,0.006,0.027,0.008c0.464,0.023,0.85,0.128,1.165,0.286c0.271,0.063,0.496,0.164,0.698,0.281
				c0.129,0.023,0.228,0.075,0.342,0.111c0.317,0.063,0.625,0.174,0.897,0.333c0.269,0.102,0.511,0.249,0.718,0.424
				c0.218,0.106,0.412,0.248,0.58,0.416c0.143,0.071,0.269,0.159,0.385,0.255c0.377,0.172,0.694,0.424,0.898,0.754
				c0.251,0.144,0.476,0.325,0.644,0.535c0.28,0.183,0.511,0.417,0.651,0.713c0.08,0.063,0.168,0.119,0.234,0.193
				c0.085,0.098,0.143,0.209,0.195,0.323c0.027,0.028,0.053,0.053,0.08,0.091c0.057,0.047,0.114,0.093,0.163,0.148
				c0.147,0.168,0.229,0.339,0.282,0.509c0.053,0.075,0.099,0.157,0.142,0.241c0.106,0.128,0.176,0.259,0.228,0.389
				c0.062,0.091,0.125,0.181,0.17,0.289c0.027,0.065,0.03,0.127,0.046,0.19c0.066,0.105,0.112,0.219,0.146,0.336
				c0.035,0.083,0.063,0.169,0.083,0.259c0.076,0.105,0.141,0.211,0.141,0.317v0.036c0.045,0.076,0.077,0.153,0.078,0.23
				c0,0.016,0.004,0.029,0.005,0.044c0.029,0.058,0.057,0.116,0.057,0.175v0.075c0.044,0.089,0.079,0.158,0.078,0.159
				c-0.01,0.005-0.017,0.011-0.025,0.016c0.028,0.057,0.056,0.114,0.056,0.172c0.006,0.032-0.016,0.059-0.022,0.088
				c0.016,0.042,0.041,0.09,0.042,0.121c0.007,0.135,0.022,0.268,0.038,0.401c0.033,0.068,0.056,0.114,0.056,0.114h-0.066
				c0.024,0.015,0.049,0.035,0.073,0.035C338.906,59.205,337.956,59.204,337.004,59.195z"/>
			<path fill="#05B8A5" d="M266.727,61.385c-1.247-16.477-19.029-21.64-28.805-10.53v-5.308l-12.408-0.052v5.921h5.734V89.07h-6.239
				v5.896h19.525v-5.871h-6.542V75.456C249.746,86.517,268.113,78.38,266.727,61.385z M252.946,73.486
				c-1.094,0.535-2.35,0.848-3.779,0.848c-0.101,0-0.194-0.014-0.294-0.017c-0.125,0.005-0.246,0.017-0.373,0.017
				c-1.261,0-2.384-0.247-3.384-0.669c-10.017-1.896-9.879-20.302,0.421-21.733C246.672,51.339,247.992,51,249.5,51
				c0.095,0,0.184,0.01,0.277,0.013C249.853,51.011,249.923,51,250,51c3.597,0,6.123,1.926,7.595,4.63
				C261.404,61.3,259.854,71.523,252.946,73.486z"/>
			<path fill="#05B8A5" d="M249.5,51c0.095,0,0.184,0.01,0.277,0.013C249.853,51.011,249.923,51,250,51
				c0.746,0,1.444,0.085,2.098,0.239c-0.837-0.225-1.736-0.367-2.71-0.393c-2.603,0.046-4.756,0.762-6.484,1.902
				c0.786-0.405,1.666-0.681,2.629-0.816C246.668,51.34,247.99,51,249.5,51z"/>
			<path fill="#05B8A5" d="M254.025,51.963c1.542,0.821,2.726,2.118,3.57,3.667c3.809,5.669,2.259,15.893-4.648,17.855
				c-1.094,0.535-2.35,0.848-3.779,0.848c-0.101,0-0.194-0.014-0.294-0.017c-0.125,0.005-0.246,0.017-0.373,0.017
				c-1.277,0-2.413-0.253-3.422-0.687c-0.941-0.187-1.802-0.505-2.564-0.955c1.79,1.236,4.076,1.973,6.874,1.911
				C261.453,74.282,263.243,56.628,254.025,51.963z"/>
			<path fill="#05B8A5" d="M203.959,44.598c-4.435-0.414-18.339,2.981-18.339,19.049c0.71,12.284,11.124,17.167,18.826,17.096
				c9.138,0.305,15.477-5.611,17.275-8.895l-5.797-2.543c-4.068,6.716-20.342,9.676-22.896-4.928h28.786
				C222.098,55.104,216.098,44.911,203.959,44.598z M214.538,59.328c-0.04,0-0.081-0.01-0.121-0.017
				c-0.015,0.038-0.042,0.061-0.088,0.061c-0.035,0-0.073-0.013-0.108-0.016c0,0,0,0-0.001,0c-0.047,0-0.099-0.017-0.147-0.022
				c-0.011,0.004-0.01,0.022-0.024,0.022c-0.028,0-0.059-0.011-0.087-0.013c-0.014,0.015-0.028,0.029-0.054,0.029
				c-0.073,0-0.153-0.022-0.23-0.035c-0.015,0.014-0.025,0.035-0.051,0.035c-0.067,0-0.14-0.021-0.21-0.032
				c-0.01,0.003-0.011,0.016-0.024,0.016c-0.041,0-0.083-0.01-0.125-0.014c-0.017,0.003-0.028,0.011-0.047,0.014
				c-0.52,0.08-1.04,0.024-1.563,0.016c-0.045,0-0.091-0.018-0.137-0.022c-0.362,0.014-0.643,0.015-0.754,0.015
				c-0.194,0-0.887,0.021-1.643-0.016c-0.021,0-0.045,0-0.06,0c-0.157,0-0.639,0.014-1.216,0c-0.368,0.014-0.655,0.016-0.768,0.016
				c-0.183,0-0.809,0.019-1.513-0.009c-0.368,0.038-0.539,0.052-0.186-0.009c-0.059-0.003-0.118-0.006-0.178-0.01
				c-0.11-0.001-0.215-0.001-0.335-0.005c-0.123,0.002-0.219,0.002-0.273,0.002c-0.181,0-0.8,0.016-1.495-0.012
				c-0.155,0.002-0.352,0.003-0.568,0.001c-0.485,0.024-0.878,0.026-1.016,0.026c-0.165,0-0.687,0.015-1.303-0.003
				c-0.147,0.002-0.26,0.003-0.322,0.003c-0.15,0-0.602,0.011-1.146,0h-0.025c-0.101,0-0.342,0.005-0.652,0.006
				c-0.815,0.067-1.83,0.112-2.726-0.021c-0.054,0.01-0.107,0.031-0.162,0.035c-0.435,0.035-0.864,0.081-1.297,0
				c-0.583-0.108-0.46-0.673-0.137-1.279c0.018-0.112,0.045-0.223,0.068-0.314c0.019-0.079,0.04-0.157,0.063-0.234
				c0.006-0.023,0.022-0.047,0.029-0.07c0.04-0.138,0.099-0.273,0.167-0.403c0.005-0.01,0.011-0.019,0.016-0.028
				c0.019-0.354,0.257-0.758,0.388-0.985c0.021-0.037,0.047-0.071,0.069-0.108c0.059-0.277,0.202-0.547,0.337-0.783
				c0.472-0.821,1.11-1.557,1.776-2.224s1.403-1.305,2.224-1.776c0.06-0.035,0.324-0.186,0.606-0.297
				c0.819-0.973,6.292-1.044,7.597-0.258c0.049,0.019,0.094,0.049,0.143,0.07c0.062,0.019,0.128,0.048,0.194,0.074
				c0.067,0.022,0.14,0.054,0.211,0.084c0.043,0.016,0.094,0.045,0.139,0.063c0.16,0.055,0.331,0.13,0.506,0.22
				c0.306,0.066,0.624,0.238,0.799,0.331c0.51,0.27,0.988,0.607,1.442,0.971c0.399,0.299,0.779,0.625,1.139,0.96
				c0.69,0.643,1.353,1.356,1.853,2.161c0.025,0.041,0.058,0.093,0.094,0.152c0.186,0.268,0.346,0.545,0.434,0.825
				c0.025,0.08,0.092,0.224,0.121,0.29c0.098,0.172,0.202,0.38,0.25,0.578c0.042,0.105,0.083,0.21,0.106,0.317
				c0.093,0.186,0.166,0.391,0.176,0.575c0.022,0.044,0.056,0.084,0.057,0.135c0,0.043-0.021,0.08-0.038,0.118
				c0.046,0.108,0.072,0.203,0.068,0.279c0.028,0.094,0.04,0.177,0.018,0.239C214.822,59.216,214.76,59.328,214.538,59.328z"/>
			<path fill="#05B8A5" d="M120.183,31.21c-3.063-0.489-6.017-0.795-9.188-0.703l-21.244,0.014v6.103l6.699,0.064l-0.032,36.78
				l-6.667,0.096l-0.031,6.121l24.37-0.273c3.269-0.137,4.723-0.282,9.528-1.471C142.43,73.287,144.089,35.002,120.183,31.21z
				 M129.958,58.655c-0.08,1.197-0.339,2.369-0.726,3.493c-0.108,0.457-0.236,0.907-0.391,1.348
				c-0.396,1.309-0.978,2.552-1.767,3.658c-1.271,2.033-3.16,3.669-5.65,4.565c-0.601,0.337-1.286,0.58-2.038,0.732
				c-0.63,0.237-1.325,0.396-2.086,0.456c-0.574,0.166-1.204,0.256-1.875,0.285c-0.496,0.095-1.021,0.15-1.582,0.15
				c-0.063,0-0.122-0.008-0.185-0.009c-0.064,0.001-0.125,0.009-0.19,0.009c-0.257,0-0.506-0.013-0.749-0.034
				c-0.226,0.018-0.452,0.034-0.689,0.034c-0.108,0-0.206-0.015-0.312-0.019c-0.125,0.005-0.246,0.019-0.375,0.019
				c-0.327,0-0.627-0.038-0.92-0.086c-0.085,0.069-0.174,0.117-0.267,0.117c-0.088,0-0.172-0.043-0.254-0.105
				c-0.049,0.025-0.1,0.042-0.152,0.042c-0.053,0-0.104-0.016-0.153-0.042c-0.082,0.062-0.165,0.104-0.253,0.104
				c-0.035,0-0.068-0.021-0.102-0.031c-0.058,0.036-0.117,0.062-0.179,0.062c-0.062,0-0.121-0.023-0.179-0.054
				c-0.044,0.019-0.087,0.054-0.133,0.054c-0.01,0-0.02-0.008-0.03-0.009c-0.051,0.024-0.104,0.04-0.158,0.04
				c-0.057,0-0.111-0.023-0.165-0.05c-0.058,0.03-0.117,0.05-0.179,0.05c-0.072,0-0.142-0.021-0.209-0.063
				c-0.064,0.039-0.129,0.063-0.197,0.063c-0.052,0-0.102-0.023-0.151-0.046c-0.053,0.026-0.106,0.046-0.161,0.046
				c-0.054,0-0.104-0.024-0.156-0.047c-0.051,0.023-0.103,0.047-0.157,0.047c-0.05,0-0.097-0.023-0.145-0.044
				c-0.045,0.019-0.089,0.044-0.136,0.044c-0.036,0-0.071-0.018-0.105-0.032c-0.016,0.031-0.031,0.063-0.051,0.063h-2.594
				c-0.013,0-0.022-0.028-0.034-0.042c-0.029,0.017-0.063,0.023-0.091,0.042c-0.007,0.005-0.015-0.009-0.023-0.034
				c-0.008,0.006-0.015,0.019-0.024,0.019c-0.159,0-0.139-0.917-0.14-1c-0.008-0.472-0.047-0.996,0.028-1.484
				c-0.025-0.451-0.025-0.905,0.01-1.351c0,0,0.005-0.076,0.01-0.154c-0.003-0.138-0.001-0.25-0.001-0.277v-2.754
				c0.016,0.202,0.017,0.206,0.001,0.011c-0.023-0.302-0.028-0.609-0.016-0.912c0.001-0.025,0.001-0.065,0.002-0.097
				c-0.1-2.243-0.1-4.676,0.009-6.902c0.001-0.125,0.011-0.249,0.018-0.374c0.011-0.194,0.023-0.383,0.035-0.573
				c-0.045-0.51-0.03-1.021,0.015-1.531c-0.013-0.197-0.004-0.392,0.004-0.587c-0.113-0.148-0.1-0.894-0.1-0.969v-0.208
				c0-0.024-0.001-0.123,0.001-0.246c-0.042-0.567-0.001-1.387,0.126-1.446c-0.076-1.357-0.12-2.715-0.12-4.068v-0.188
				c0-1.917,0.052-3.847,0.223-5.763c-0.157-0.334-0.225-0.757-0.225-0.982v-2.333c0-0.112,0.003-0.278,0.018-0.458
				c-0.193-0.874-0.011-2.024,0.602-2.024c0.091,0,0.172,0.031,0.248,0.075c0.093-0.092,0.204-0.148,0.335-0.148
				c0.089,0,0.167,0.035,0.242,0.077c0.054-0.022,0.112-0.035,0.175-0.035c0.029,0,0.055,0.011,0.083,0.015
				c0.041-0.004,0.077-0.016,0.121-0.016c0.101,0,0.188,0.02,0.277,0.036c0.063-0.033,0.13-0.056,0.207-0.056
				c0.031,0,0.057,0.014,0.086,0.02c0.033-0.008,0.065-0.02,0.102-0.02c0.07,0,0.136,0.015,0.198,0.042h1.636
				c0.054,0,0.104,0.013,0.152,0.028c0.062-0.007,0.121-0.019,0.187-0.019c0.187,0,0.354,0.029,0.525,0.052
				c0.167-0.025,0.333-0.052,0.506-0.052h0.031c0.241,0,0.476,0.026,0.704,0.074c0.297,0.005,0.598,0.029,0.914,0.082
				c0.008,0.001,0.015,0.002,0.022,0.004c0.027,0,0.051-0.004,0.078-0.004c0.032,0,0.061,0.004,0.093,0.004
				c0.031-0.002,0.062-0.004,0.095-0.004c0.289,0,0.562,0.024,0.829,0.055c0.161-0.008,0.317-0.023,0.483-0.023
				c0.228,0,0.445,0.016,0.663,0.032c0.009,0,0.017-0.001,0.025-0.001c0.246,0,0.482,0.016,0.716,0.035
				c0.235-0.021,0.473-0.035,0.722-0.035c0.865,0,1.649,0.125,2.359,0.343c2.747,0.147,4.992,1.042,6.737,2.417
				c1.212,0.854,2.188,1.938,2.96,3.151c0.048,0.065,0.089,0.135,0.136,0.201c1.455,1.838,2.314,4.102,2.605,6.452
				c0.461,1.628,0.596,3.35,0.457,5.046C130.308,55.961,130.223,57.329,129.958,58.655z"/>
			<path fill="#05B8A5" d="M117.328,37.351c0.517,0.034,1.022,0.085,1.506,0.166c-0.928-0.219-1.934-0.377-3.012-0.473
				C116.359,37.098,116.859,37.205,117.328,37.351z"/>
			<path fill="#05B8A5" d="M111.212,36.938c0.008,0.001,0.015,0.002,0.022,0.004c0.027,0,0.051-0.004,0.078-0.004
				c0.032,0,0.061,0.004,0.093,0.004c0.031-0.002,0.062-0.004,0.095-0.004c0.289,0,0.562,0.024,0.829,0.055
				c0.161-0.008,0.317-0.023,0.483-0.023c0.228,0,0.445,0.016,0.663,0.032c0.009,0,0.017-0.001,0.025-0.001
				c0.246,0,0.482,0.016,0.716,0.035c0.235-0.021,0.473-0.035,0.722-0.035c0.3,0,0.59,0.015,0.872,0.043
				c-0.521-0.046-1.053-0.082-1.612-0.095l-4.15-0.12c0.043,0.006,0.083,0.021,0.125,0.029
				C110.509,36.854,110.851,36.877,111.212,36.938z"/>
			<path fill="#05B8A5" d="M106.171,36.73c0.031,0,0.057,0.014,0.086,0.02c0.033-0.008,0.065-0.02,0.102-0.02
				c0.07,0,0.136,0.015,0.198,0.042h1.544l-4.264-0.123v1.031c0.078-0.501,0.29-0.896,0.647-0.896c0.091,0,0.172,0.031,0.248,0.075
				c0.093-0.092,0.204-0.148,0.335-0.148c0.089,0,0.167,0.035,0.242,0.077c0.054-0.022,0.112-0.035,0.175-0.035
				c0.029,0,0.055,0.011,0.083,0.015c0.041-0.004,0.077-0.016,0.121-0.016c0.101,0,0.188,0.02,0.277,0.036
				C106.028,36.753,106.095,36.73,106.171,36.73z"/>
			<path fill="#05B8A5" d="M103.959,55.469c-0.113-0.148-0.1-0.894-0.1-0.969v-0.208c0-0.024-0.001-0.123,0.001-0.246
				c-0.042-0.567-0.001-1.387,0.126-1.446c-0.076-1.357-0.12-2.715-0.12-4.068v-0.188c0-1.917,0.052-3.847,0.223-5.763
				c-0.157-0.334-0.225-0.757-0.225-0.982v-2.333c0-0.116,0.003-0.289,0.02-0.476c-0.018-0.06-0.038-0.117-0.047-0.183v21.188
				c0.013-0.427,0.03-0.847,0.05-1.262c0.001-0.125,0.011-0.249,0.018-0.374c0.011-0.194,0.023-0.383,0.035-0.573
				c-0.045-0.51-0.03-1.021,0.015-1.531C103.942,55.859,103.951,55.664,103.959,55.469z"/>
			<path fill="#05B8A5" d="M103.891,69.188v-2.754c0.016,0.202,0.017,0.206,0.001,0.011c-0.023-0.302-0.028-0.609-0.016-0.912
				c0.001-0.02,0.001-0.052,0.001-0.075c-0.015-0.332-0.031-0.663-0.041-1.003v6.927c0.006-0.131,0.02-0.26,0.038-0.388
				c-0.028-0.459-0.028-0.922,0.008-1.376c0,0,0.005-0.076,0.01-0.154C103.89,69.327,103.891,69.214,103.891,69.188z"/>
			<path fill="#05B8A5" d="M119.437,72.433c-0.643,0.248-1.353,0.412-2.133,0.474c-0.574,0.166-1.206,0.256-1.877,0.286
				c-0.496,0.095-1.021,0.15-1.583,0.15c-0.063,0-0.122-0.008-0.185-0.009c-0.064,0.001-0.125,0.009-0.19,0.009
				c-0.257,0-0.506-0.013-0.749-0.034c-0.226,0.018-0.452,0.034-0.689,0.034c-0.108,0-0.206-0.015-0.312-0.019
				c-0.125,0.005-0.246,0.019-0.375,0.019c-0.327,0-0.627-0.038-0.92-0.086c-0.085,0.069-0.174,0.117-0.267,0.117
				c-0.088,0-0.172-0.043-0.254-0.105c-0.049,0.025-0.1,0.042-0.152,0.042c-0.053,0-0.104-0.016-0.153-0.042
				c-0.082,0.062-0.165,0.104-0.253,0.104c-0.035,0-0.068-0.021-0.102-0.031c-0.058,0.036-0.117,0.062-0.179,0.062
				c-0.062,0-0.121-0.023-0.179-0.054c-0.044,0.019-0.087,0.054-0.133,0.054c-0.01,0-0.02-0.008-0.03-0.009
				c-0.051,0.024-0.104,0.04-0.158,0.04c-0.057,0-0.111-0.023-0.165-0.05c-0.058,0.03-0.117,0.05-0.179,0.05
				c-0.072,0-0.142-0.021-0.209-0.063c-0.064,0.039-0.129,0.063-0.197,0.063c-0.052,0-0.102-0.023-0.151-0.046
				c-0.053,0.026-0.106,0.046-0.161,0.046c-0.054,0-0.104-0.024-0.156-0.047c-0.051,0.023-0.103,0.047-0.157,0.047
				c-0.05,0-0.097-0.023-0.145-0.044c-0.045,0.019-0.089,0.044-0.136,0.044c-0.036,0-0.071-0.019-0.105-0.032
				c-0.013,0.024-0.026,0.046-0.041,0.051l7.318-0.071c2.318-0.143,4.284-0.527,5.968-1.087
				C119.853,72.356,119.641,72.39,119.437,72.433z"/>
			<path fill="#05B8A5" d="M125.292,40.782c0.719,0.688,1.329,1.469,1.842,2.31c0.038,0.053,0.069,0.109,0.106,0.162
				c1.391,1.814,2.215,4.025,2.498,6.319c0.459,1.626,0.594,3.345,0.455,5.038c0.115,1.351,0.03,2.719-0.234,4.045
				c-0.08,1.199-0.339,2.372-0.727,3.498c-0.107,0.45-0.232,0.895-0.384,1.33c-0.385,1.278-0.943,2.496-1.704,3.583
				c-0.307,0.509-0.651,0.995-1.039,1.45c3.162-3.466,3.795-8.055,4.149-11.364C130.443,54.471,130.901,45.858,125.292,40.782z"/>
			<path id="_95066776" fill="#05B8A5" d="M272.294,79.661l-0.012-17.728l6.061-0.05l-0.013,4.482
				c2.151,3.882,6.788,8.9,14.002,7.651c8.74-2.745,7.258-11.702,3.068-13.573c-5.137-3.225-23.047-3.398-23.22-16.235
				c-0.223-3.494,0.514-13.801,14.108-14.555c4.941-0.018,8.256,2.04,11.232,4.036l-0.048-3.378l5.936,0.015l0.047,14.87
				l-5.907-0.01l-0.047-3.304c-1.692-2.614-4.843-6.495-11.928-5.799c-5.113,0.733-6.734,3.414-6.814,6.031
				c-0.083,2.725,1.652,5.177,3.243,5.666c4.39,1.821,9.929,2.97,13.879,4.328c6.654,2.289,10.412,7.65,9.964,15.535
				c-0.472,3.882-3.612,12.042-14.242,12.825c-4.826,0.106-8.627-1.033-13.211-4.82l-0.05,4.015L272.294,79.661z"/>
			<path id="_95066704" fill="#05B8A5" d="M394.136,79.686l0.031-11.726l5.823,0.005l0.097,1.184
				c0.492,2.79,3.478,6.144,9.468,5.443c6.972-0.755,6.847-6.147,3.403-7.47c-4.253-2.006-18.551-1.034-18.875-11.847
				c-0.183-2.471,1.606-9.912,11.597-10.293c4.021,0.001,6.243,0.57,8.689,1.982l0.015-1.476l5.927,0.01l-0.043,11.308l-5.862-0.007
				l-0.012-2.01c-1.392-1.849-3.423-4.62-9.028-4.21c-2.762,0.15-4.394,1.785-4.907,3.202c-0.686,1.891,0.514,3.457,1.821,3.803
				c3.608,1.288,8.911,1.596,12.156,2.557c5.471,1.619,8.273,5.956,7.538,11.682c-0.388,2.746-3.078,7.862-11.815,8.416
				c-3.968,0.075-6.153-0.103-10.098-2.455l-0.015,1.903H394.136L394.136,79.686z"/>
			<path id="_95066632" fill="#05B8A5" d="M498.854,79.686l-0.09-11.705l6.055-0.014l0.02,1.012
				c0.493,2.791,3.427,6.332,9.417,5.631c6.972-0.755,6.74-6.227,3.297-7.55c-4.253-2.007-18.259-1.061-18.582-11.98
				c-0.104-2.524,1.261-9.752,11.251-10.133c4.021,0.001,6.562,0.676,9.008,2.088l-0.045-1.522l5.881-0.05l0.036,11.307
				l-5.863-0.034l-0.01-1.849c-1.229-1.907-3.689-4.78-9.295-4.371c-2.788,0.443-4.414,1.821-4.721,3.282
				c-0.393,1.864,0.486,3.298,1.688,3.776c3.608,1.289,9.018,1.57,12.264,2.53c5.47,1.618,8.353,5.902,7.617,11.629
				c-0.388,2.745-3.238,7.915-11.976,8.469c-3.968,0.076-6.037-0.002-9.981-2.354l0.002,1.837H498.854z"/>
			<path id="_95066560" fill="#05B8A5" d="M351.642,51.442l-0.017-5.882l12.606,0.046l0.026,4.076
				c2.564-1.961,6.227-3.667,8.298-4.236c6.104-1.918,10.663,1.146,11.787,4.725c1.039,2.454,0.528,15.581,0.633,23.535l5.824,0.035
				v5.944h-12.394l-0.125-24.763c-0.284-3.298-3.438-4.864-7.7-3.125c-2.127,0.801-5.614,3.051-6.304,3.711l-0.046,18.18
				l5.931-0.001v5.999h-18.591l0.027-5.971h5.957l0.002-22.261L351.642,51.442L351.642,51.442z"/>
			<path id="_95066488" fill="#05B8A5" d="M467.314,45.444l0.006,6.01l6.922,0.009l-0.014,22.292l-6.927-0.041l-0.027,5.971h21.064
				v-5.952l-7.449-0.027l0.045-11.82c0.316-6.688,3.555-8.842,6.366-9.608c2.773-0.506,5.001-0.446,7.5-0.566l0.013-6.758
				c-5.535-0.343-12.679,0.437-15.258,8.177V45.58L467.314,45.444z"/>
			<path fill="#05B8A5" d="M162.522,44.504c-4.435-0.414-18.339,2.981-18.34,19.049c0.711,12.284,11.125,17.167,18.827,17.096
				c9.137,0.305,15.476-5.611,17.274-8.895l-5.797-2.543c-4.067,6.717-20.342,9.676-22.896-4.928h28.786
				C180.661,55.009,174.661,44.816,162.522,44.504z M172.734,59.297c-0.028,0-0.049-0.012-0.075-0.015
				c-0.784,0.005-1.566,0.024-2.342,0h-4.489c-0.011,0-0.019-0.005-0.029-0.006c-0.003,0-0.006-0.001-0.009-0.001
				c-0.024,0.002-0.045,0.007-0.071,0.007c-0.047,0-0.086-0.012-0.133-0.013c-0.044,0.004-0.085,0.013-0.133,0.013
				s-0.086-0.012-0.133-0.013c-0.096,0.009-0.186,0.029-0.289,0.029c-0.075,0-0.138-0.018-0.211-0.021
				c-0.073,0.003-0.136,0.021-0.211,0.021c-0.084,0-0.155-0.02-0.237-0.023c-0.108,0.009-0.212,0.023-0.326,0.023
				c-0.162,0-0.307-0.026-0.453-0.05c-0.065,0.002-0.121,0.019-0.188,0.019c-0.028,0-0.051-0.007-0.078-0.008
				c-0.026,0.003-0.05,0.008-0.078,0.008c-0.063,0-0.117-0.016-0.179-0.018c-0.11,0.013-0.217,0.033-0.336,0.033
				c-0.108,0-0.201-0.023-0.305-0.03c-0.051,0.002-0.095,0.015-0.148,0.015c-0.101,0-0.188-0.022-0.285-0.028
				c-0.062,0.003-0.122,0.014-0.185,0.014c-0.117,0-0.228-0.021-0.341-0.037c-0.171,0.02-0.334,0.051-0.518,0.051
				c-0.066,0-0.123-0.016-0.188-0.019c-0.064,0.004-0.121,0.019-0.188,0.019c-0.07,0-0.128-0.017-0.196-0.02
				c-0.024,0.002-0.048,0.005-0.073,0.007c-0.042,0.001-0.078,0.012-0.122,0.012c-0.007,0-0.013-0.002-0.02-0.002
				c-0.083,0.005-0.16,0.018-0.246,0.018c-0.04,0-0.073-0.01-0.112-0.011c-0.047,0.002-0.089,0.011-0.138,0.011
				c-0.028,0-0.051-0.007-0.079-0.008c-0.038,0.001-0.071,0.008-0.109,0.008c-0.061,0-0.112-0.015-0.172-0.017
				c-0.058,0.005-0.111,0.017-0.172,0.017s-0.112-0.015-0.171-0.017c-0.058,0.005-0.111,0.017-0.172,0.017
				c-0.061,0-0.112-0.015-0.172-0.017c-0.059,0.004-0.111,0.017-0.172,0.017c-0.033,0-0.061-0.009-0.094-0.009
				c-0.022,0-0.042,0.003-0.063,0.006c-0.006,0-0.01,0.003-0.016,0.003h-0.016c-0.001,0-0.002,0-0.003,0
				c-0.708-0.004-1.414-0.041-2.122-0.015c-0.023,0.001-0.039-0.008-0.06-0.01c-0.074,0.002-0.147,0.002-0.221,0.01
				c-0.007,0-0.012-0.003-0.02-0.002c-0.004,0-0.007,0.002-0.012,0.002h-1.453c-0.006,0-0.01-0.003-0.016-0.003
				s-0.01,0.003-0.016,0.003h-1.766c-0.044,0-0.078-0.015-0.116-0.023c-0.425,0.096-0.861-0.452-0.473-0.828
				c0.019-0.147,0.082-0.27,0.165-0.373c-0.036-0.171-0.001-0.349,0.113-0.458c0.008-0.117,0.049-0.229,0.129-0.316
				c-0.001-0.111,0.047-0.204,0.112-0.283c-0.004-0.139,0.041-0.271,0.133-0.36c0-0.005-0.001-0.01-0.001-0.015
				c0.003-0.138,0.062-0.231,0.137-0.306c0.006-0.047,0.023-0.089,0.041-0.132c0.018-0.078,0.056-0.147,0.105-0.208
				c0.023-0.13,0.094-0.245,0.206-0.32c-0.006-0.171,0.069-0.336,0.216-0.431c0.025-0.139,0.098-0.263,0.226-0.335
				c0.012-0.028,0.022-0.058,0.034-0.086c0.016-0.037,0.032-0.074,0.049-0.11c0.027-0.06,0.068-0.11,0.099-0.167
				c0.063-0.137,0.136-0.268,0.217-0.393c0.113-0.203,0.257-0.386,0.418-0.556c0.001,0,0.001-0.001,0.002-0.002
				c0.054-0.066,0.106-0.134,0.167-0.195c0.097-0.145,0.205-0.282,0.329-0.407c0.158-0.226,0.346-0.431,0.573-0.601
				c0.133-0.129,0.279-0.247,0.442-0.348c0.153-0.144,0.315-0.28,0.5-0.395c0.069-0.054,0.149-0.096,0.223-0.146
				c0.117-0.089,0.229-0.184,0.357-0.259c0.179-0.104,0.375-0.198,0.582-0.278c0.265-0.148,0.541-0.274,0.833-0.354
				c0.01-0.003,0.021-0.002,0.031-0.005c0.035-0.014,0.071-0.022,0.106-0.034c0.194-0.094,0.415-0.157,0.646-0.204
				c0.281-0.116,0.601-0.183,0.951-0.207c0.325-0.088,0.656-0.152,0.996-0.152c0.038,0,0.074,0.01,0.111,0.011
				c0.228-0.043,0.464-0.074,0.722-0.074c0.166,0,0.309,0.032,0.463,0.048c0.042-0.001,0.083-0.013,0.125-0.013
				c0.312,0,0.613,0.046,0.906,0.117c0.083,0.008,0.162,0.03,0.244,0.043c0.318,0.028,0.621,0.105,0.914,0.204
				c0.194,0.033,0.384,0.08,0.568,0.14c0.277,0.057,0.539,0.155,0.791,0.271c0.215,0.063,0.417,0.141,0.608,0.232
				c0.172,0.063,0.324,0.147,0.478,0.23c0.206,0.086,0.379,0.207,0.552,0.329c0.047,0.021,0.093,0.044,0.131,0.079
				c0.002,0.001,0.005,0.002,0.008,0.004c0.08,0.02,0.15,0.062,0.211,0.115c0.092,0.027,0.158,0.082,0.212,0.146
				c0.04,0.014,0.07,0.039,0.103,0.061c0.072,0.024,0.133,0.063,0.182,0.111c0.09,0.032,0.154,0.09,0.204,0.159
				c0.118,0.026,0.207,0.088,0.269,0.17c0.063,0.023,0.096,0.075,0.139,0.118c0.092,0.027,0.158,0.082,0.211,0.146
				c0.116,0.04,0.193,0.124,0.245,0.221c0.07,0.026,0.127,0.066,0.172,0.116c0.082,0.037,0.138,0.099,0.183,0.168
				c0.09,0.036,0.152,0.101,0.2,0.174c0.117,0.05,0.195,0.142,0.238,0.25c0.113,0.05,0.186,0.141,0.228,0.246
				c0.081,0.047,0.127,0.123,0.166,0.202c0.103,0.038,0.17,0.112,0.22,0.197c0.079,0.049,0.129,0.124,0.165,0.204
				c0.063,0.054,0.119,0.119,0.154,0.212c0.062,0.165,0.267,0.299,0.387,0.42c0.068,0.068,0.103,0.142,0.123,0.217
				c0.029,0.041,0.03,0.092,0.042,0.14c0.017,0.018,0.023,0.043,0.037,0.063c0.083,0.07,0.137,0.164,0.159,0.271
				c0.006,0.012,0.003,0.026,0.008,0.039c0.098,0.08,0.152,0.196,0.169,0.318c0.103,0.068,0.161,0.175,0.188,0.29
				c0.033,0.038,0.034,0.091,0.053,0.138c0.051,0.051,0.086,0.113,0.111,0.18c0.03,0.05,0.034,0.109,0.048,0.166
				c0.073,0.074,0.115,0.171,0.131,0.273c0.023,0.035,0.03,0.077,0.043,0.116c0.066,0.075,0.095,0.171,0.106,0.271
				c0.025,0.05,0.019,0.107,0.028,0.162c0.061,0.074,0.086,0.166,0.097,0.261c0.041,0.08,0.066,0.167,0.064,0.258
				c0.01,0.021,0.016,0.043,0.028,0.064c0.051,0.087,0.062,0.17,0.06,0.25C173.315,58.808,173.188,59.297,172.734,59.297z"/>
			<path fill="#05B8A5" d="M151.911,58.527c0.022-0.038,0.042-0.077,0.078-0.113c0.019-0.148,0.082-0.271,0.165-0.374
				c-0.036-0.172,0-0.349,0.113-0.458c0.008-0.117,0.049-0.229,0.129-0.316c-0.001-0.111,0.047-0.204,0.112-0.283
				c-0.004-0.139,0.041-0.271,0.133-0.36c0-0.005-0.001-0.01-0.001-0.015c0.003-0.138,0.062-0.231,0.137-0.306
				c0.006-0.047,0.023-0.089,0.041-0.132c0.018-0.078,0.056-0.147,0.105-0.208c0.023-0.13,0.094-0.245,0.206-0.32
				c-0.006-0.171,0.069-0.336,0.216-0.431c0.025-0.139,0.098-0.263,0.226-0.335c0.012-0.028,0.022-0.058,0.034-0.086
				c0.016-0.037,0.032-0.074,0.049-0.11c0.027-0.06,0.068-0.11,0.099-0.167c0.063-0.137,0.136-0.268,0.217-0.393
				c0.113-0.203,0.257-0.386,0.418-0.556c0.001,0,0.001-0.001,0.002-0.002c0.055-0.067,0.107-0.135,0.169-0.197
				c0.098-0.146,0.207-0.285,0.333-0.41c0.066-0.094,0.136-0.184,0.214-0.269C153.726,54.053,152.603,55.964,151.911,58.527z"/>
			<path fill="#05B8A5" d="M171.664,55.082c0.044,0.054,0.074,0.11,0.091,0.167c0.03,0.042,0.032,0.095,0.044,0.145
				c0.017,0.018,0.023,0.042,0.037,0.063c0.084,0.071,0.138,0.165,0.16,0.271c0.006,0.012,0.003,0.026,0.008,0.039
				c0.098,0.08,0.152,0.196,0.169,0.318c0.103,0.068,0.161,0.175,0.188,0.29c0.033,0.038,0.034,0.091,0.053,0.138
				c0.051,0.051,0.086,0.113,0.111,0.18c0.03,0.05,0.034,0.109,0.048,0.166c0.073,0.074,0.115,0.171,0.131,0.273
				c0.023,0.035,0.03,0.077,0.043,0.116c0.066,0.075,0.095,0.171,0.106,0.271c0.025,0.05,0.019,0.107,0.028,0.162
				c0.061,0.074,0.086,0.166,0.097,0.261c0.041,0.08,0.066,0.167,0.064,0.258c0.01,0.021,0.016,0.043,0.028,0.064
				c0.051,0.087,0.062,0.17,0.06,0.25c0.184,0.294,0.056,0.783-0.397,0.783c-0.028,0-0.049-0.012-0.075-0.015
				c-0.784,0.005-1.566,0.024-2.342,0h-4.489c-0.011,0-0.019-0.005-0.029-0.006c-0.003,0-0.006-0.001-0.009-0.001
				c-0.024,0.002-0.045,0.007-0.071,0.007c-0.047,0-0.086-0.012-0.133-0.013c-0.044,0.004-0.085,0.013-0.133,0.013
				s-0.086-0.012-0.133-0.013c-0.096,0.009-0.186,0.029-0.289,0.029c-0.075,0-0.138-0.018-0.211-0.021
				c-0.073,0.003-0.136,0.021-0.211,0.021c-0.084,0-0.155-0.02-0.237-0.023c-0.108,0.009-0.212,0.023-0.326,0.023
				c-0.162,0-0.307-0.026-0.453-0.05c-0.065,0.002-0.121,0.019-0.188,0.019c-0.028,0-0.051-0.007-0.078-0.008
				c-0.026,0.003-0.05,0.008-0.078,0.008c-0.063,0-0.117-0.016-0.179-0.018c-0.11,0.013-0.217,0.033-0.336,0.033
				c-0.108,0-0.201-0.023-0.305-0.03c-0.051,0.002-0.095,0.015-0.148,0.015c-0.101,0-0.188-0.022-0.285-0.028
				c-0.062,0.003-0.122,0.014-0.185,0.014c-0.117,0-0.228-0.021-0.341-0.037c-0.171,0.02-0.334,0.051-0.518,0.051
				c-0.066,0-0.123-0.016-0.188-0.019c-0.064,0.004-0.121,0.019-0.188,0.019c-0.07,0-0.128-0.017-0.196-0.02
				c-0.024,0.002-0.048,0.005-0.073,0.007c-0.042,0.001-0.078,0.012-0.122,0.012c-0.007,0-0.013-0.002-0.02-0.002
				c-0.083,0.005-0.16,0.018-0.246,0.018c-0.04,0-0.073-0.01-0.112-0.011c-0.047,0.002-0.089,0.011-0.138,0.011
				c-0.028,0-0.051-0.007-0.079-0.008c-0.038,0.001-0.071,0.008-0.109,0.008c-0.061,0-0.112-0.015-0.172-0.017
				c-0.058,0.005-0.111,0.017-0.172,0.017s-0.112-0.015-0.171-0.017c-0.058,0.005-0.111,0.017-0.172,0.017
				c-0.061,0-0.112-0.015-0.172-0.017c-0.059,0.004-0.111,0.017-0.172,0.017c-0.033,0-0.061-0.009-0.094-0.009
				c-0.022,0-0.042,0.003-0.063,0.006c-0.006,0-0.01,0.003-0.016,0.003h-0.016c-0.001,0-0.002,0-0.003,0
				c-0.708-0.004-1.414-0.041-2.122-0.015c-0.023,0.001-0.039-0.008-0.06-0.01c-0.074,0.002-0.147,0.002-0.221,0.01
				c-0.007,0-0.012-0.003-0.02-0.002c-0.004,0-0.007,0.002-0.012,0.002h-1.453c-0.006,0-0.01-0.003-0.016-0.003
				s-0.01,0.003-0.016,0.003h-1.766c-0.042,0-0.073-0.014-0.109-0.022c-0.294,0.071-0.595-0.169-0.625-0.453
				c-0.044,0.174-0.092,0.341-0.132,0.52h21.63C173.142,57.751,172.533,56.331,171.664,55.082z"/>
			<path fill="#05B8A5" d="M167.752,51.613c0.075,0.02,0.143,0.055,0.202,0.103c0.093,0.027,0.16,0.082,0.215,0.146
				c0.041,0.014,0.071,0.039,0.104,0.062c0.072,0.024,0.133,0.063,0.182,0.111c0.09,0.032,0.154,0.09,0.204,0.159
				c0.118,0.026,0.207,0.088,0.269,0.17c0.063,0.023,0.096,0.075,0.139,0.118c0.092,0.027,0.158,0.082,0.211,0.146
				c0.116,0.04,0.193,0.124,0.245,0.221c0.07,0.026,0.127,0.066,0.172,0.116c0.082,0.037,0.138,0.099,0.183,0.168
				c0.09,0.036,0.152,0.101,0.2,0.174c0.117,0.05,0.195,0.142,0.238,0.25c0.113,0.05,0.186,0.141,0.228,0.246
				c0.081,0.047,0.127,0.123,0.166,0.202c0.103,0.038,0.17,0.112,0.22,0.197c0.079,0.049,0.129,0.124,0.165,0.204
				c0.063,0.054,0.119,0.119,0.154,0.212c0.062,0.164,0.263,0.296,0.384,0.417c-1.099-1.562-2.613-2.847-4.345-3.731
				c0.104,0.053,0.188,0.126,0.277,0.196C167.635,51.521,167.698,51.561,167.752,51.613z"/>
			<path fill="#05B8A5" d="M207.228,50.678c0.062,0.019,0.128,0.048,0.194,0.074c0.067,0.022,0.14,0.054,0.211,0.084
				c0.043,0.016,0.094,0.045,0.139,0.063c0.16,0.055,0.331,0.13,0.506,0.22c0.306,0.066,0.624,0.238,0.799,0.331
				c0.51,0.27,0.988,0.607,1.442,0.971c0.399,0.299,0.779,0.625,1.139,0.96c0.69,0.643,1.353,1.356,1.853,2.161
				c0.025,0.041,0.058,0.093,0.094,0.152c0.186,0.268,0.346,0.545,0.434,0.825c0.025,0.08,0.092,0.224,0.121,0.29
				c0.098,0.172,0.202,0.38,0.25,0.578c0.042,0.105,0.083,0.21,0.106,0.317c0.093,0.186,0.166,0.391,0.176,0.575
				c0.022,0.044,0.056,0.084,0.057,0.135c0,0.043-0.021,0.08-0.038,0.118c0.046,0.108,0.072,0.203,0.068,0.279
				c0.028,0.094,0.04,0.177,0.018,0.239c0.023,0.166-0.038,0.277-0.261,0.277c-0.04,0-0.081-0.01-0.121-0.017
				c-0.015,0.038-0.042,0.061-0.088,0.061c-0.035,0-0.073-0.013-0.108-0.016c0,0,0,0-0.001,0c-0.047,0-0.099-0.017-0.147-0.022
				c-0.011,0.004-0.01,0.022-0.024,0.022c-0.028,0-0.059-0.011-0.087-0.013c-0.014,0.015-0.028,0.029-0.054,0.029
				c-0.073,0-0.153-0.022-0.23-0.035c-0.015,0.014-0.025,0.035-0.051,0.035c-0.067,0-0.14-0.021-0.21-0.032
				c-0.01,0.003-0.011,0.016-0.024,0.016c-0.041,0-0.083-0.01-0.125-0.014c-0.017,0.003-0.028,0.011-0.047,0.014
				c-0.199,0.031-0.398,0.03-0.598,0.031h2.315c-0.538-4.212-3.927-7.53-7.899-8.815c0.021,0.011,0.029,0.025,0.048,0.036
				C207.134,50.626,207.179,50.657,207.228,50.678z"/>
			<path fill="#05B8A5" d="M211.656,59.372c-0.045,0-0.091-0.018-0.137-0.022c-0.362,0.014-0.643,0.015-0.754,0.015
				c-0.194,0-0.887,0.021-1.643-0.016c-0.021,0-0.045,0-0.06,0c-0.157,0-0.639,0.014-1.216,0c-0.368,0.014-0.655,0.016-0.768,0.016
				c-0.183,0-0.81,0.019-1.515-0.01c-0.143,0.015-0.269,0.028-0.335,0.033h6.915C211.98,59.381,211.819,59.374,211.656,59.372z"/>
			<path fill="#05B8A5" d="M196.658,52.939c0.667-0.667,1.403-1.305,2.224-1.776c0.063-0.036,0.342-0.197,0.636-0.309
				c0.03-0.031,0.055-0.063,0.093-0.093c-1.841,0.786-3.492,2.212-4.717,4.383C195.364,54.331,195.997,53.601,196.658,52.939z"/>
			<path fill="#05B8A5" d="M193.882,59.368c-0.583-0.108-0.46-0.673-0.137-1.279c0.018-0.112,0.045-0.223,0.068-0.314
				c0.019-0.079,0.04-0.157,0.063-0.234c0.006-0.023,0.022-0.047,0.029-0.07c0.04-0.138,0.099-0.273,0.167-0.403
				c0.005-0.01,0.011-0.019,0.016-0.028c0.019-0.354,0.257-0.758,0.388-0.985c0.021-0.035,0.045-0.068,0.066-0.104
				c0.025-0.112,0.061-0.225,0.109-0.333c-0.555,1.085-1.021,2.323-1.344,3.771h0.859C194.071,59.38,193.977,59.386,193.882,59.368z
				"/>
			<path fill="#05B8A5" d="M205.202,59.335c-0.11-0.001-0.215-0.001-0.335-0.005c-0.123,0.002-0.219,0.002-0.273,0.002
				c-0.181,0-0.8,0.016-1.495-0.012c-0.155,0.002-0.352,0.003-0.568,0.001c-0.485,0.024-0.878,0.026-1.016,0.026
				c-0.165,0-0.687,0.015-1.303-0.003c-0.147,0.002-0.26,0.003-0.322,0.003c-0.15,0-0.602,0.011-1.147,0h-0.024
				c-0.103,0-0.35,0.006-0.668,0.006c-0.142,0.011-0.279,0.023-0.432,0.033h7.548c0.007-0.005,0.091-0.021,0.213-0.042
				C205.32,59.343,205.262,59.339,205.202,59.335z"/>
			<path fill="#05B8A5" d="M205.481,50.18c-1.401-0.254-2.836-0.259-4.216,0.048C202.539,50.034,204.208,50.02,205.481,50.18z"/>
			<path fill="#05B8A5" d="M318.618,59.148c-0.018,0.02-0.039,0.042-0.048,0.042c-0.076,0.003-0.151-0.003-0.225-0.015
				c-0.047,0.028-0.035,0.009,0.008-0.033c0.015-0.026,0.039-0.069,0.067-0.118c-0.019-0.01-0.04-0.019-0.053-0.037
				c-0.028-0.028,0.058-0.201,0.19-0.43c0.004-0.008,0.01-0.018,0.016-0.026c-0.021-0.016-0.055-0.012-0.065-0.043
				c-0.01-0.015,0.025-0.087,0.074-0.175c0-0.021-0.016-0.038-0.012-0.059c0-0.04,0.025-0.1,0.061-0.168
				c-0.009-0.018-0.021-0.033-0.03-0.051c-0.016-0.03,0.078-0.194,0.173-0.349c0-0.009-0.002-0.018-0.001-0.026
				c0-0.04,0.026-0.102,0.063-0.172c-0.007-0.041-0.016-0.081-0.016-0.125c0-0.06,0.058-0.168,0.125-0.278v-0.065
				c0-0.067,0.069-0.192,0.146-0.315c0.046-0.111,0.099-0.219,0.171-0.315c0.044-0.251,0.14-0.479,0.3-0.667
				c0.014-0.074,0.011-0.145,0.04-0.222c0.053-0.141,0.135-0.253,0.216-0.367c0.012-0.051,0.024-0.103,0.042-0.151
				c-0.667,1.185-1.213,2.581-1.583,4.235h0.667c-0.12,0-0.238,0.002-0.359-0.011C318.585,59.207,318.599,59.182,318.618,59.148z"/>
			<path fill="#05B8A5" d="M325.748,59.16c-0.078,0.007-0.158,0.016-0.233,0.018c-0.128,0.002-0.271-0.006-0.419-0.024
				c-0.18,0.031-0.36,0.053-0.534,0.056c-0.158,0.003-0.349-0.019-0.544-0.05c-0.312,0.048-0.639,0.035-0.962-0.007
				c-0.277,0.04-0.577,0.039-0.88,0.008h-1.673c-0.389,0-0.929,0.092-1.326-0.032c-0.037,0.048-0.069,0.086-0.086,0.09h6.92
				C325.917,59.204,325.838,59.177,325.748,59.16z"/>
			<path fill="#05B8A5" d="M336.905,59.204c-0.07,0.001-0.139-0.011-0.208-0.012c-0.72-0.007-1.44-0.016-2.161-0.029h-2.879
				c-0.856,0-1.759,0.091-2.624,0.006c-0.071,0.018-0.139,0.038-0.217,0.05h11.091c-1.109-8.7-14.369-13.609-19.847-4.595
				c0.075-0.098,0.162-0.187,0.258-0.269c0.066-0.131,0.158-0.247,0.259-0.356c0.051-0.151,0.125-0.303,0.25-0.456
				c0.096-0.118,0.211-0.219,0.334-0.312c0.104-0.165,0.238-0.318,0.409-0.448c0.01-0.018,0.017-0.035,0.027-0.053
				c0.067-0.111,0.138-0.198,0.229-0.292c0.179-0.184,0.386-0.327,0.602-0.452c0.176-0.171,0.389-0.315,0.608-0.434
				c0.458-0.341,1.006-0.629,1.657-0.834c0.872-0.422,1.965-0.684,3.292-0.697c0.283-0.089,0.609-0.141,0.984-0.141
				c0.249,0,0.47,0.03,0.679,0.072c0.349,0.013,0.655,0.071,0.922,0.163c0.01,0.001,0.017,0.006,0.027,0.008
				c0.464,0.023,0.85,0.128,1.165,0.286c0.271,0.063,0.496,0.164,0.698,0.281c0.129,0.023,0.228,0.075,0.342,0.111
				c0.317,0.063,0.625,0.174,0.897,0.333c0.269,0.102,0.511,0.249,0.718,0.424c0.218,0.106,0.412,0.248,0.58,0.416
				c0.143,0.071,0.269,0.159,0.385,0.255c0.377,0.172,0.694,0.424,0.898,0.754c0.251,0.144,0.476,0.325,0.644,0.535
				c0.28,0.183,0.511,0.417,0.651,0.713c0.08,0.063,0.168,0.119,0.234,0.193c0.085,0.098,0.143,0.209,0.195,0.323
				c0.027,0.028,0.053,0.053,0.08,0.091c0.057,0.047,0.114,0.093,0.163,0.148c0.147,0.168,0.229,0.339,0.282,0.509
				c0.053,0.075,0.099,0.157,0.142,0.241c0.106,0.128,0.176,0.259,0.228,0.389c0.062,0.091,0.125,0.181,0.17,0.289
				c0.027,0.065,0.03,0.127,0.046,0.19c0.066,0.105,0.112,0.219,0.146,0.336c0.035,0.083,0.063,0.169,0.083,0.259
				c0.076,0.105,0.141,0.211,0.141,0.317v0.036c0.045,0.076,0.077,0.153,0.078,0.23c0,0.016,0.004,0.029,0.005,0.044
				c0.029,0.058,0.057,0.116,0.057,0.175v0.075c0.044,0.089,0.079,0.158,0.078,0.159c-0.01,0.005-0.017,0.011-0.025,0.016
				c0.028,0.057,0.056,0.114,0.056,0.172c0.006,0.032-0.016,0.059-0.022,0.088c0.016,0.042,0.041,0.09,0.042,0.121
				c0.007,0.135,0.022,0.268,0.038,0.401c0.033,0.068,0.056,0.114,0.056,0.114h-0.066c0.024,0.015,0.049,0.035,0.073,0.035
				c-0.95,0.02-1.9,0.019-2.852,0.01C336.972,59.197,336.937,59.203,336.905,59.204z"/>
		</g>
	</g>
</g>
</svg>
