<?xml version="1.0" encoding="utf-8"?>
<!-- Generator: Adobe Illustrator 16.0.0, SVG Export Plug-In . SVG Version: 6.00 Build 0)  -->
<!DOCTYPE svg PUBLIC "-//W3C//DTD SVG 1.0//EN" "http://www.w3.org/TR/2001/REC-SVG-20010904/DTD/svg10.dtd">
<svg version="1.0" id="Layer_1" xmlns="http://www.w3.org/2000/svg" xmlns:xlink="http://www.w3.org/1999/xlink" x="0px" y="0px"
	 width="71.122px" height="84.118px" viewBox="12.079 22.576 71.122 84.118" enable-background="new 12.079 22.576 71.122 84.118"
	 xml:space="preserve">
<g id="Capa_x0020_1">
	<g id="_95066152">
		<g>
			<path fill="#1D8E88" d="M59.115,72.888c-1.326-0.52-2.823,0.133-3.343,1.459c-0.521,1.326,0.133,2.823,1.459,3.343
				s2.823-0.133,3.343-1.459C61.095,74.905,60.441,73.408,59.115,72.888z M58.156,77.781c-3.225,0-3.225-5,0-5
				S61.381,77.781,58.156,77.781z"/>
			<path fill="#1D8E88" d="M46.448,98.231c0.338,1.081,0.3,2.287-0.109,3.34c0.032-0.07,0.076-0.131,0.104-0.204
				C46.855,100.317,46.818,99.209,46.448,98.231z"/>
			<path fill="#1D8E88" d="M53.967,22.957c-2.826-1.108-6.016,0.284-7.124,3.11s0.284,6.016,3.11,7.124
				c2.826,1.108,6.016-0.284,7.124-3.11C58.186,27.255,56.793,24.065,53.967,22.957z M52,31.594c-0.311,0-0.596-0.04-0.864-0.102
				c-3.628-0.667-3.555-6.398,0.206-6.88c0.042-0.007,0.087-0.007,0.129-0.013c0.125-0.012,0.24-0.037,0.373-0.037
				c0.019,0,0.035,0.005,0.054,0.005c0.024,0,0.046-0.005,0.071-0.005c1.131,0,1.979,0.44,2.543,1.099
				C56.237,27.621,55.402,31.594,52,31.594z"/>
			<path fill="#1D8E88" d="M79.694,48.664c-2.839-1.113-6.043,0.286-7.156,3.124c-1.113,2.839,0.286,6.043,3.125,7.156
				s6.042-0.286,7.155-3.125S82.533,49.777,79.694,48.664z M77.688,57.281c-4.514,0-4.514-7,0-7S82.202,57.281,77.688,57.281z"/>
			<path fill="#1D8E88" d="M59.665,71.486c-2.101-0.824-4.471,0.211-5.295,2.312c-0.823,2.101,0.211,4.471,2.312,5.295
				s4.472-0.211,5.295-2.312C62.801,74.68,61.766,72.31,59.665,71.486z M58.156,77.781c-3.225,0-3.225-5,0-5
				S61.381,77.781,58.156,77.781z"/>
			<g id="_95136032">
				
					<rect x="49.419" y="80.942" transform="matrix(0.8447 0.5352 -0.5352 0.8447 54.0992 -13.5591)" fill="#1D8E88" width="2" height="11.04"/>
			</g>
			<g id="_95135960">
				
					<rect x="24.63" y="64.487" transform="matrix(0.8874 0.461 -0.461 0.8874 34.6819 -11.0187)" fill="#1D8E88" width="30.535" height="2"/>
			</g>
			<g id="_95135888">
				
					<rect x="66.114" y="57.156" transform="matrix(0.7353 0.6777 -0.6777 0.7353 61.8801 -28.2544)" fill="#1D8E88" width="2" height="15.881"/>
			</g>
			<g id="_95135816">
				
					<rect x="34.871" y="26.682" transform="matrix(0.6088 0.7933 -0.7933 0.6088 45.6593 -12.8626)" fill="#1D8E88" width="2" height="26.366"/>
			</g>
			<g id="_95135744">
				
					<rect x="54.107" y="40.146" transform="matrix(0.6795 0.7337 -0.7337 0.6795 51.0715 -34.6117)" fill="#1D8E88" width="22.085" height="2.001"/>
			</g>
			<path fill="#1D8E88" d="M44.902,93.33c-3.558-1.396-7.573,0.358-8.969,3.916s0.357,7.574,3.916,8.969
				c3.558,1.396,7.573-0.358,8.969-3.916S48.461,94.725,44.902,93.33z M42.333,104.25c-5.804,0-5.804-9,0-9
				S48.137,104.25,42.333,104.25z"/>
			<path fill="#1D8E88" d="M74.941,51.672c-0.202,0.259-0.381,0.538-0.507,0.859c-0.507,1.293-0.18,2.698,0.709,3.649
				C74.099,54.958,74.04,52.996,74.941,51.672z"/>
			<path fill="#1D8E88" d="M80.614,51.942c0.695,1.271,0.59,2.986-0.305,4.127c0.25-0.291,0.467-0.617,0.615-0.994
				C81.346,54.001,81.188,52.849,80.614,51.942z"/>
			<path fill="#1D8E88" d="M21.528,46.917c-3.559-1.396-7.574,0.358-8.97,3.916s0.358,7.574,3.916,8.969
				c3.559,1.395,7.574-0.358,8.97-3.916C26.84,52.328,25.086,48.312,21.528,46.917z M19.021,57.856c-5.804,0-5.804-9,0-9
				S24.824,57.856,19.021,57.856z"/>
			<path fill="#1D8E88" d="M59.115,72.888c-1.326-0.52-2.823,0.133-3.343,1.459c-0.521,1.326,0.133,2.823,1.459,3.343
				s2.823-0.133,3.343-1.459C61.095,74.905,60.441,73.408,59.115,72.888z M58.156,77.781c-3.225,0-3.225-5,0-5
				S61.381,77.781,58.156,77.781z"/>
			<path fill="#1D8E88" d="M46.448,98.231c0.338,1.081,0.3,2.287-0.109,3.34c0.032-0.07,0.076-0.131,0.104-0.204
				C46.855,100.317,46.818,99.209,46.448,98.231z"/>
		</g>
		<g>
			<path fill="#1D8E88" d="M89.751,74.565l-0.031,6.121 M89.751,31.521v6.103"/>
		</g>
	</g>
</g>
</svg>
